# xmcd
#
# Track frame offsets: 
#        150
#        17884
#        34603
#        50639
#        68262
#        90462
#        105942
#        122311
#        130169
#        142201
#        154726
#        185921
#        204474
#
# Disc length: 2918 seconds
#
# Revision: 0
# Processed by: cddbd v1.5.1PL0 Copyright (c) Steve Scherf et al.
# Submitted via: ExactAudioCopy v0.95a5
#
DISCID=aa0b640d
DTITLE=Kalama Blue - Live @ Blind Melons
DYEAR=2005
DGENRE=Blues
TTITLE0=Watermelon Man
TTITLE1=Rock Me Right
TTITLE2=Soul Shake
TTITLE3=Guilty
TTITLE4=Shotgun
TTITLE5=Down Home Blues
TTITLE6=Willy Wontcha
TTITLE7=Maybe
TTITLE8=Son of a Preacherman
TTITLE9=Take Me to the River
TTITLE10=Dr. Feel Good
TTITLE11=Love Me Like A Man
TTITLE12=Dust Your Broom
EXTD=
EXTT0=
EXTT1=
EXTT2=
EXTT3=
EXTT4=
EXTT5=
EXTT6=
EXTT7=
EXTT8=
EXTT9=
EXTT10=
EXTT11=
EXTT12=
PLAYORDER=
